<svg viewBox="0 0 168 168" xmlns="http://www.w3.org/2000/svg">
    <circle fill="#1DB954" cx="84" cy="84" r="84"/>
    <path fill="#050505ff" d="M119.6 113.4c-1.5 2.5-4.8 3.3-7.2 1.8-19.8-12.1-44.8-14.9-74.3-8.3-2.9.7-5.9-1.2-6.6-4.2-.7-2.9 1.2-5.9 4.2-6.6 33.2-7.3 61.2-4.1 84.3 9.6 2.5 1.5 3.3 4.8 1.8 7.7zm9.3-21.7c-1.9 3-5.9 4-8.9 2.1-22.7-14-57.4-18-84.2-10-3.4 1-7-1-7.9-4.4-1-3.4 1-7 4.4-7.9 31.3-9 70.3-4.5 96 11.1 3 1.9 4 5.9 2.1 8.9zm.8-22.4C104.6 55.6 59.2 54.3 34 61.3c-4 1.1-8.1-1.1-9.2-5.1-1.1-4 1.1-8.1 5.1-9.2 29.4-8.2 79.2-6.6 111.3 13.4 3.6 2.2 4.8 7 2.5 10.5-2.2 3.7-6.9 4.9-10.5 2.9z"/>
  </svg>